<svg xmlns="http://www.w3.org/2000/svg" width="1000" height="279.933" viewBox="0 0 1000 279.933">
  <g>
    <path d="M35.673,69.25H13.216a19.281,19.281,0,0,1-6.083-.841,7.845,7.845,0,0,1-4.091-3.147A16.646,16.646,0,0,1,.734,58.756,65.091,65.091,0,0,1,0,47.845,65.14,65.14,0,0,1,.734,36.934a17.7,17.7,0,0,1,2.308-6.611,7.76,7.76,0,0,1,4.091-3.254,19.431,19.431,0,0,1,6.083-.839h110.59q44.271,0,67.989,19.308t23.71,56.865q0,25.182-12.8,40.081T165.567,163.47a54.064,54.064,0,0,1,8.916,5.349,68.949,68.949,0,0,1,7.657,6.611,76.789,76.789,0,0,1,8.4,10.491q3.777,5.668,6.928,11.333t5.979,11.121q2.832,5.459,5.769,10.072a48.626,48.626,0,0,0,8.391,9.967,15.066,15.066,0,0,0,10.289,3.884h3.986a19.433,19.433,0,0,1,6.084.839,7.741,7.741,0,0,1,4.091,3.252,17.844,17.844,0,0,1,2.312,6.61,82.04,82.04,0,0,1,0,21.825,16.8,16.8,0,0,1-2.312,6.506,7.847,7.847,0,0,1-4.091,3.146,19.345,19.345,0,0,1-6.084.839H209.422q-13.846,0-24.025-7.03t-19.41-22.137a217.923,217.923,0,0,1-12.277-23.5,142.848,142.848,0,0,0-13.536-23.712,53.683,53.683,0,0,0-8.082-9.338,38.437,38.437,0,0,0-9.44-6.3A46.5,46.5,0,0,0,111,179.733a85.855,85.855,0,0,0-14.894-1.154H88.133V232.3h24.55a19.486,19.486,0,0,1,6.088.839,7.741,7.741,0,0,1,4.091,3.252,17.759,17.759,0,0,1,2.307,6.61,81.376,81.376,0,0,1,0,21.825,16.723,16.723,0,0,1-2.307,6.506,7.847,7.847,0,0,1-4.091,3.146,19.4,19.4,0,0,1-6.088.839H13.216a19.343,19.343,0,0,1-6.083-.839,7.843,7.843,0,0,1-4.091-3.146,16.658,16.658,0,0,1-2.308-6.506A81.486,81.486,0,0,1,.734,243a17.687,17.687,0,0,1,2.308-6.61,7.737,7.737,0,0,1,4.091-3.252,19.431,19.431,0,0,1,6.083-.839H35.673ZM119.4,133.461q21.614,0,31.791-7.66t10.18-23.4q0-15.736-10.18-23.4T119.4,71.348H88.133v62.113Z" fill="currentColor"/>
    <path d="M255.379,124.438a19.408,19.408,0,0,1-6.089-.839,7.838,7.838,0,0,1-4.086-3.147,16.711,16.711,0,0,1-2.307-6.506,65.444,65.444,0,0,1-.739-10.911,65.509,65.509,0,0,1,.739-10.914,17.765,17.765,0,0,1,2.307-6.61,7.745,7.745,0,0,1,4.086-3.252,19.466,19.466,0,0,1,6.089-.839H291.9q7.125,0,10.174,3.042t3.042,10.179v30.216q10.069-24.127,23.395-36.092T357.572,76.8q16.371,0,26.128,11.124T397.655,119.4q9.861-21.4,22.557-32T447.8,76.8A38.576,38.576,0,0,1,464.7,80.476a33.971,33.971,0,0,1,13.117,11.436q5.454,7.765,8.5,19.832t3.042,28.642V262.094q0,7.137-3.042,10.18t-10.179,3.041H450.111q-7.132,0-10.175-3.041t-3.042-10.18V152.346q0-10.908-2.517-16.263a8.634,8.634,0,0,0-8.391-5.349q-9.664,0-15.534,14.794t-5.874,45.221v71.345q0,7.137-3.042,10.18t-10.179,3.041H365.339q-7.14,0-10.179-3.041t-3.042-10.18V152.346q0-10.908-2.523-16.263a8.629,8.629,0,0,0-8.391-5.349q-9.649,0-15.524,14.794T319.8,190.749v71.345q0,7.137-3.042,10.18t-10.18,3.041H280.557q-7.132,0-10.174-3.041t-3.042-10.18V124.438Z" fill="currentColor"/>
    <path d="M912.706,236.284a42.262,42.262,0,0,1,3.461-17A43.759,43.759,0,0,1,939.353,196.1a43.435,43.435,0,0,1,34,0,43.7,43.7,0,0,1,23.191,23.185,43.469,43.469,0,0,1,0,34,43.7,43.7,0,0,1-23.191,23.188,43.435,43.435,0,0,1-34,0,43.76,43.76,0,0,1-23.186-23.188A42.219,42.219,0,0,1,912.706,236.284Z" fill="currentColor"/>
    <path d="M642.281,229.47c-.5-3.233-1.746-6.2-4.639-7.388-2.5-1.026-5.333-.247-7.889.617-10.306,3.487-20.327,8.3-31.142,9.484s-23.08-2.251-28.558-11.65c-3.149-5.4-3.615-11.906-3.9-18.151-.955-21.073-.7-42.179-.44-63.271l65.439.04c3.4,0,7.266-.2,9.456-2.8,1.757-2.088,1.844-5.066,1.844-7.795l0-23.958c0-2.729-.086-5.706-1.841-7.8-2.192-2.61-6.066-2.814-9.475-2.812l-65.483.038-.044-58.759c0-2.543-.04-5.223-1.331-7.413-1.962-3.329-6.153-4.5-9.966-5.131-8.954-1.478-18.575-2.347-27.576-.689-4.729.871-9.5,3.168-11.891,7.337A18.885,18.885,0,0,0,512.77,37.4c-1.353,17.545.134,35.612.206,53.213.117,28.794-.12,57.587-.12,86.38l-.019,5.233c-.051,13.88-.093,27.866,2.552,41.491s8.188,27.031,17.93,36.918c11.81,11.986,28.841,17.765,45.635,18.807s33.547-2.24,49.91-6.162c4.412-1.058,9.238-2.457,11.675-6.284,1.8-2.833,1.881-6.392,1.9-9.75l.142-22.955A30.618,30.618,0,0,0,642.281,229.47Z" fill="currentColor"/>
    <path d="M892.788,236.284a7.865,7.865,0,0,0-4.086-3.147,19.455,19.455,0,0,0-6.088-.839H864.358V13.221q0-7.133-3.042-10.177T851.137,0H770.556a19.433,19.433,0,0,0-6.084.839,7.75,7.75,0,0,0-4.091,3.254,17.684,17.684,0,0,0-2.312,6.611,65.624,65.624,0,0,0-.73,10.911,65.583,65.583,0,0,0,.73,10.911,16.65,16.65,0,0,0,2.312,6.506,7.849,7.849,0,0,0,4.091,3.147,19.316,19.316,0,0,0,6.084.839H811.9v64.213a76.072,76.072,0,0,0-24.659-17.837,73.353,73.353,0,0,0-30.529-6.3q-20.775,0-37.461,7.45a84.383,84.383,0,0,0-28.54,20.564,90.231,90.231,0,0,0-18.151,31.162,118.419,118.419,0,0,0-6.293,39.242,118.392,118.392,0,0,0,6.293,39.241,90.157,90.157,0,0,0,18.151,31.16,84.28,84.28,0,0,0,28.54,20.566q16.686,7.445,37.461,7.45,20.349,0,36.512-8.394a75.133,75.133,0,0,0,27.072-23.922v14.477q0,7.137,3.037,10.18t10.179,3.041h49.1a19.368,19.368,0,0,0,6.088-.839,7.7,7.7,0,0,0,4.086-3.251,17.841,17.841,0,0,0,2.313-6.611,81.486,81.486,0,0,0,0-21.825A16.836,16.836,0,0,0,892.788,236.284Zm-83.3-32.419a44.8,44.8,0,0,1-10.494,15.841,43.312,43.312,0,0,1-15.319,9.445A54.221,54.221,0,0,1,765.1,232.3q-19.308,0-30.953-13.012t-11.643-37.77q0-24.757,11.643-37.773T765.1,130.734a54.245,54.245,0,0,1,18.57,3.146,43.307,43.307,0,0,1,15.319,9.443,44.846,44.846,0,0,1,10.494,15.844,59.107,59.107,0,0,1,3.881,22.349Q813.366,194.316,809.485,203.865Z" fill="currentColor"/>
  </g>
</svg>
