<svg xmlns="http://www.w3.org/2000/svg" width="1000" height="332.199" viewBox="0 0 1000 332.199">
  <g>
    <path d="M993.792,225.219a76.807,76.807,0,0,0-40.358-40.354,76.565,76.565,0,0,0-60.439.01,78.066,78.066,0,0,0-18.792,11.51V48.554c0-17.866-7.3-28.932-13.418-35.069C854.582,7.3,843.515,0,825.65,0H750.918a54.126,54.126,0,0,0-17.071,2.625l-.094.031a43.248,43.248,0,0,0-22.67,17.608,52.137,52.137,0,0,0-7.5,19.7,95.319,95.319,0,0,0-1.22,16.375,95.259,95.259,0,0,0,1.22,16.376,58.1,58.1,0,0,0,2.105,8.394,111.675,111.675,0,0,0-17.15,6.019,115.9,115.9,0,0,0-28.459,18.025c-.587-.814-1.21-1.623-1.884-2.425-8.67-10.325-20.964-15.56-36.537-15.56l-24.507.014-.013-18.208c0-4.393-.012-14.677-6.265-25.282-4.892-8.3-14.866-18.875-34.592-22.132A132.841,132.841,0,0,0,534.6,19.6h0a90.7,90.7,0,0,0-16.379,1.436C502.665,23.9,489.573,32.8,482.3,45.45a52.762,52.762,0,0,0-6.646,22.737c-.178,2.315-.3,4.606-.4,6.884a73.07,73.07,0,0,0-23.669-3.843,74.534,74.534,0,0,0-42.254,13.279c-11.573-8.728-25.665-13.279-41.428-13.279a73.476,73.476,0,0,0-36.641,9.827A51.9,51.9,0,0,0,307,75.51H273.134A55.773,55.773,0,0,0,259.5,77.157a92.119,92.119,0,0,0-22.421-26.776c-21.239-17.289-50.162-26.055-85.969-26.055H48.549a54.143,54.143,0,0,0-17.073,2.626A43.325,43.325,0,0,0,8.729,44.568a52.243,52.243,0,0,0-7.5,19.706A94.933,94.933,0,0,0,0,80.665,94.829,94.829,0,0,0,1.224,97.036a51.15,51.15,0,0,0,7.9,20.226A43.377,43.377,0,0,0,31.4,134.155q.834.279,1.684.528V217.56q-.812.237-1.607.5A43.285,43.285,0,0,0,8.728,235.676a52.275,52.275,0,0,0-7.507,19.739,110.131,110.131,0,0,0,0,32.741,51.148,51.148,0,0,0,7.9,20.217,43.374,43.374,0,0,0,22.35,16.918,53.985,53.985,0,0,0,17.071,2.625H140.8a54.141,54.141,0,0,0,17.092-2.63,43.367,43.367,0,0,0,21.98-16.4,80.709,80.709,0,0,0,7.749,6.088c12.411,8.582,26.853,12.943,42.9,12.943H251.34a54.07,54.07,0,0,0,17.118-2.64,43.64,43.64,0,0,0,5.254-2.17,52.535,52.535,0,0,0,22.774,4.81H320.62c11.927,0,20.823-3.249,27.246-7.233,6.424,3.984,15.32,7.233,27.247,7.233h24.13c11.924,0,20.82-3.25,27.242-7.232,6.415,3.978,15.314,7.232,27.247,7.232h24.134c17.9,0,28.967-7.315,35.1-13.451.693-.693,1.4-1.458,2.112-2.279,15.274,11.345,34.669,18.169,55.9,19.485,2.682.167,5.439.251,8.2.251,17.6,0,33.854-3.314,48.8-6.9,6.078-1.457,22.009-5.309,32.349-20.713a115.846,115.846,0,0,0,28.219,17.822c14.971,6.679,31.635,10.063,49.539,10.063a109.569,109.569,0,0,0,46.7-9.956,51.8,51.8,0,0,0,24.523,5.673h45.539a54.063,54.063,0,0,0,17.125-2.641,42.956,42.956,0,0,0,10.254-5.008,79.359,79.359,0,0,0,10.787,5.716,76.56,76.56,0,0,0,60.437,0,76.8,76.8,0,0,0,40.347-40.35,76.595,76.595,0,0,0,0-60.414ZM262.92,281.894a15.58,15.58,0,0,1-2.144,6.033,7.279,7.279,0,0,1-3.794,2.919,17.954,17.954,0,0,1-5.642.778H230.513a39.929,39.929,0,0,1-17.35-3.666,35.412,35.412,0,0,1-4.931-2.854l-.007,0c-.7-.486-1.4-1.014-2.1-1.564-.222-.175-.443-.36-.664-.541q-.732-.6-1.459-1.246c-.242-.215-.484-.428-.724-.651-.536-.5-1.07-1.014-1.6-1.548-.159-.159-.32-.308-.478-.471-.643-.661-1.282-1.358-1.918-2.075-.278-.312-.554-.64-.83-.963q-.587-.687-1.17-1.405c-.3-.366-.594-.735-.89-1.114-.4-.51-.794-1.039-1.189-1.571-.261-.352-.523-.691-.783-1.052l0,0h0q-2.118-2.945-4.185-6.32a202.242,202.242,0,0,1-11.386-21.8c-1.283-2.858-2.706-5.657-4.2-8.425h0c-1.019-1.89-2.093-3.757-3.2-5.608-.325-.539-.641-1.082-.975-1.618-.414-.669-.841-1.332-1.268-2-.945-1.46-1.9-2.914-2.908-4.347a49.849,49.849,0,0,0-7.5-8.66q-1-.9-2.043-1.714a39.588,39.588,0,0,0-6.712-4.125q-1.192-.558-2.463-1.044a43.056,43.056,0,0,0-5.4-1.655q-1.431-.34-2.938-.608a79.74,79.74,0,0,0-13.813-1.07h-7.4v49.82H140.8q.827,0,1.593.049a16.235,16.235,0,0,1,4.053.729,6.92,6.92,0,0,1,3.01,1.989,8.388,8.388,0,0,1,.784,1.027c.108.165.2.363.3.542a12.827,12.827,0,0,1,.963,2.11,22.29,22.29,0,0,1,.875,3.478,75.542,75.542,0,0,1,0,20.241,15.513,15.513,0,0,1-2.14,6.034,7.424,7.424,0,0,1-2.681,2.445,7.3,7.3,0,0,1-1.113.473q-.585.194-1.23.34a20.116,20.116,0,0,1-4.416.438H48.549a20.38,20.38,0,0,1-4.171-.394,13.361,13.361,0,0,1-1.471-.384,7.339,7.339,0,0,1-1.113-.473,7.44,7.44,0,0,1-2.681-2.445,12,12,0,0,1-1.412-3.065,21.693,21.693,0,0,1-.728-2.969,75.542,75.542,0,0,1,0-20.241,16.4,16.4,0,0,1,2.14-6.13,7.18,7.18,0,0,1,3.794-3.016,16.176,16.176,0,0,1,4.049-.729q.766-.049,1.593-.049H69.376V100.516H48.549q-.827,0-1.593-.049a15.948,15.948,0,0,1-4.049-.732,7.277,7.277,0,0,1-3.794-2.918,11.239,11.239,0,0,1-1.266-2.578,21.165,21.165,0,0,1-.874-3.455,60.16,60.16,0,0,1-.68-10.078v-.041h0a60.426,60.426,0,0,1,.681-10.119,18.928,18.928,0,0,1,1.459-4.907,10.622,10.622,0,0,1,.681-1.223A7.194,7.194,0,0,1,42.907,61.4a18.006,18.006,0,0,1,5.642-.779H151.112q20,0,35.462,4.26c.585.161,1.165.328,1.741.5a75.189,75.189,0,0,1,23.027,10.982q1.45,1.048,2.824,2.167t2.654,2.3c.551.507,1.071,1.038,1.6,1.562.291.29.6.567.881.862.709.737,1.387,1.5,2.051,2.269.083.1.174.187.257.284q14.549,17.135,14.548,45.465,0,23.353-11.868,37.171T189.842,187.9a50.141,50.141,0,0,1,8.268,4.962,63.951,63.951,0,0,1,7.1,6.13,71.36,71.36,0,0,1,7.787,9.73q3.5,5.258,6.424,10.511t5.545,10.314q2.626,5.061,5.35,9.341a45.137,45.137,0,0,0,7.783,9.243,13.975,13.975,0,0,0,9.542,3.6h3.7a18.013,18.013,0,0,1,5.642.778,7.18,7.18,0,0,1,3.794,3.016,16.56,16.56,0,0,1,2.144,6.13,75.984,75.984,0,0,1,0,20.241Zm227.208-2.532a24,24,0,0,1-.232,3.411h0v0a16.319,16.319,0,0,1-.36,1.8c-.01.036-.018.073-.028.109a11.593,11.593,0,0,1-.54,1.585c0,.011-.01.021-.015.032a8.888,8.888,0,0,1-.643,1.207c-.056.09-.113.18-.172.266a7.27,7.27,0,0,1-.832,1.027,7.178,7.178,0,0,1-.764.661q-2.886,2.16-8.676,2.16H453.732q-5.789,0-8.671-2.16a7.093,7.093,0,0,1-.765-.661,8.736,8.736,0,0,1-2.118-3.771,16.146,16.146,0,0,1-.528-2.6,25.065,25.065,0,0,1-.175-3.072V177.58q0-10.116-2.335-15.082a8.006,8.006,0,0,0-7.782-4.961q-8.963,0-14.406,13.72T411.5,213.2v63.188h0v2.979a17.858,17.858,0,0,1-1.1,6.791,8.089,8.089,0,0,1-1.717,2.65,7.1,7.1,0,0,1-.766.661,9.337,9.337,0,0,1-2.714,1.351c-.177.058-.355.114-.54.165a20.286,20.286,0,0,1-5.42.644h-24.13q-5.795,0-8.676-2.16a7.178,7.178,0,0,1-.764-.661,6.983,6.983,0,0,1-.661-.765q-2.16-2.883-2.16-8.676v-4.209h0V177.58q0-10.116-2.339-15.082a8,8,0,0,0-7.783-4.961q-8.949,0-14.4,13.72T332.881,213.2v61.2h0v4.967q0,5.791-2.16,8.676a6.95,6.95,0,0,1-1.426,1.426q-2.885,2.16-8.675,2.16H296.486q-6.615,0-9.436-2.821t-2.821-9.441V151.7H273.134a17.979,17.979,0,0,1-5.646-.779A7.258,7.258,0,0,1,263.7,148a15.523,15.523,0,0,1-2.141-6.033,60.867,60.867,0,0,1-.685-10.12,60.906,60.906,0,0,1,.685-10.121A16.5,16.5,0,0,1,263.7,115.6a7.175,7.175,0,0,1,3.789-3.015,18.037,18.037,0,0,1,5.646-.779H307a16.009,16.009,0,0,1,7.785,1.588,8.144,8.144,0,0,1,.885.573,6.768,6.768,0,0,1,1.447,1.459c.023.032.043.069.066.1a8.071,8.071,0,0,1,.529.839c.006.011.011.024.016.035a16.2,16.2,0,0,1,1.529,7.666v28.023q9.231-22.122,21.419-33.2h0c.094-.086.184-.185.278-.27q1.545-1.386,3.125-2.6,11.06-8.493,23.83-8.494h0a38.764,38.764,0,0,1,7.208.645,29.523,29.523,0,0,1,12.116,5.158,30.34,30.34,0,0,1,4.907,4.513c.4.452.766.95,1.147,1.426.06.076.121.149.181.224h0q8,10.132,11.615,27.54,8.061-17.5,18.168-27.2h0c.906-.87,1.821-1.7,2.751-2.476q11.771-9.825,25.589-9.83a40.491,40.491,0,0,1,4.189.213,34.629,34.629,0,0,1,11.477,3.194c.712.342,1.4.722,2.085,1.12.168.1.333.2.5.307q.833.51,1.634,1.079c.119.085.24.167.358.254a33.366,33.366,0,0,1,7.587,7.846q5.059,7.2,7.884,18.392a109.71,109.71,0,0,1,2.822,26.563Zm141.974-4.5a22.275,22.275,0,0,1-.831,7.075h0l-.006.015a9.772,9.772,0,0,1-.4.986,8.417,8.417,0,0,1-.528.967,9.221,9.221,0,0,1-2.07,2.27,17.057,17.057,0,0,1-5.657,2.732c-1.03.315-2.077.58-3.1.825q-2.661.637-5.337,1.243c-.551.125-1.1.241-1.655.363-1.245.275-2.491.546-3.74.8-.676.14-1.354.27-2.032.4q-1.705.338-3.416.651c-.723.131-1.446.254-2.169.377q-1.667.284-3.337.532c-.731.11-1.461.217-2.192.316-1.137.155-2.274.288-3.413.416-.7.078-1.4.162-2.1.229-1.258.121-2.518.21-3.779.293-.575.038-1.149.09-1.724.119-1.813.092-3.627.148-5.442.148l-.054,0c-1.962,0-3.925-.057-5.889-.179h-.006q-1.427-.089-2.852-.227c-.363-.036-.726-.084-1.089-.124-.586-.065-1.171-.126-1.756-.2-.465-.062-.929-.138-1.393-.208s-.95-.137-1.423-.217c-.534-.09-1.064-.2-1.6-.3-.4-.076-.8-.147-1.2-.23-.578-.119-1.152-.254-1.727-.387-.346-.08-.693-.155-1.038-.241-.618-.151-1.23-.318-1.842-.486-.3-.081-.591-.158-.885-.243-.65-.187-1.294-.388-1.938-.594-.249-.079-.5-.155-.746-.238-.674-.223-1.343-.462-2.009-.706-.21-.077-.421-.152-.63-.231-.692-.262-1.377-.538-2.059-.823-.175-.073-.351-.145-.526-.22q-1.059-.453-2.1-.945c-.143-.068-.286-.135-.429-.2q-1.074-.518-2.124-1.076l-.334-.179q-1.08-.584-2.133-1.21l-.261-.157q-1.078-.651-2.127-1.349l-.187-.126q-1.076-.723-2.115-1.5l-.112-.085q-1.067-.8-2.092-1.652l-.052-.045c-1.227-1.025-2.42-2.1-3.549-3.242-9.035-9.169-14.176-21.6-16.629-34.238s-2.414-25.607-2.367-38.479l.018-4.854c0-26.7.22-53.4.111-80.109-.021-5.2-.177-10.439-.336-15.694h0c-.09-2.947-.18-5.9-.251-8.848l-.009-.459q-.058-2.538-.089-5.073c0-.434-.011-.868-.014-1.3-.016-1.865-.021-3.729,0-5.589,0-.151.007-.3.009-.454q.031-2.51.125-5.011c.018-.479.036-.957.057-1.435.08-1.826.177-3.65.317-5.466v-.02a20.8,20.8,0,0,1,1.112-5.7,11.785,11.785,0,0,1,.816-1.746,11.431,11.431,0,0,1,2.044-2.581,17.751,17.751,0,0,1,8.984-4.224l.017,0c.941-.173,1.891-.308,2.845-.424.3-.036.59-.064.886-.094q1.038-.108,2.081-.177c.309-.02.617-.041.927-.056q1.2-.058,2.407-.07c.17,0,.34-.009.511-.009l.13,0c.2,0,.406.015.609.017.992.009,1.984.034,2.976.084.419.02.837.05,1.256.077.822.054,1.642.116,2.462.192.436.04.87.082,1.305.128q1.269.135,2.527.3c.368.048.737.091,1.1.142,1.187.165,2.367.342,3.533.535a21.824,21.824,0,0,1,5.264,1.44,8.392,8.392,0,0,1,3.978,3.318,7.466,7.466,0,0,1,.7,1.6c.086.277.158.56.218.846a18.177,18.177,0,0,1,.314,3.54c0,.3,0,.594,0,.889q.021,26.2.04,52.4h0q0,1.049,0,2.1l60.73-.035c3.161,0,6.755.187,8.788,2.608,1.627,1.938,1.707,4.7,1.707,7.229l0,22.219c0,2.531-.08,5.293-1.71,7.229-2.031,2.414-5.616,2.6-8.77,2.6l-60.689-.038c-.239,19.562-.477,39.136.408,58.679.263,5.792.7,11.824,3.615,16.834,5.081,8.717,16.456,11.9,26.486,10.8s19.323-5.562,28.881-8.8c2.37-.8,5-1.524,7.317-.573,2.682,1.1,3.838,3.854,4.3,6.853a28.533,28.533,0,0,1,.28,4.468ZM866.423,281.7a16.532,16.532,0,0,1-2.145,6.131,7.151,7.151,0,0,1-3.789,3.016,17.983,17.983,0,0,1-5.647.778H809.3q-6.615,0-9.441-2.821v0a7.272,7.272,0,0,1-.85-1.056c-.065-.1-.128-.193-.19-.293a9.025,9.025,0,0,1-.671-1.288l0-.006h0a17.882,17.882,0,0,1-1.1-6.8V265.936a70.218,70.218,0,0,1-20.71,19.671h0c-1.433.883-2.89,1.733-4.4,2.515q-15,7.779-33.862,7.785h0q-19.268,0-34.742-6.909l0,0c-1.67-.746-3.286-1.555-4.878-2.393-.285-.15-.567-.3-.848-.457-1.551-.839-3.07-1.716-4.545-2.644h0a76.9,76.9,0,0,1-16.193-13.577,83.617,83.617,0,0,1-16.833-28.9,109.814,109.814,0,0,1-5.837-36.393,109.833,109.833,0,0,1,5.837-36.394,83.7,83.7,0,0,1,16.833-28.9A77.414,77.414,0,0,1,697.9,122.961h0l.009,0c.81-.434,1.625-.863,2.456-1.273.975-.489,1.961-.965,2.969-1.415q15.474-6.907,34.742-6.909h0a68.01,68.01,0,0,1,28.312,5.839c1.391.627,2.746,1.312,4.084,2.024.226.121.451.245.675.368a71,71,0,0,1,18.111,14.15V124h0V76.187H750.918a17.892,17.892,0,0,1-5.642-.778,7.273,7.273,0,0,1-3.794-2.918,15.44,15.44,0,0,1-2.145-6.034,60.885,60.885,0,0,1-.676-10.119,60.926,60.926,0,0,1,.676-10.119,16.4,16.4,0,0,1,2.145-6.131,7.185,7.185,0,0,1,3.794-3.018,18.038,18.038,0,0,1,5.642-.778H825.65q6.615,0,9.44,2.823t2.821,9.439V251.729h16.931a18.042,18.042,0,0,1,5.647.778,7.307,7.307,0,0,1,3.789,2.918,15.616,15.616,0,0,1,2.145,6.034,75.535,75.535,0,0,1,0,20.24Zm94.075-10.51a42.185,42.185,0,0,1-4.754,8.23,38.249,38.249,0,0,1-9.843,9.5,42.807,42.807,0,0,1-6.911,3.77,38.383,38.383,0,0,1-7.636,2.409,40.528,40.528,0,0,1-8.123.8,39.168,39.168,0,0,1-15.768-3.213c-1.026-.445-2.014-.934-2.976-1.453-.916-.481-1.795-1.006-2.661-1.545h0a40.058,40.058,0,0,1-7.2-5.662,41.094,41.094,0,0,1-8.663-12.845,40.31,40.31,0,0,1,0-31.527,42.073,42.073,0,0,1,5.141-8.741h0v0c.493-.648,1-1.288,1.526-1.9.637-.757,1.294-1.495,1.994-2.2.432-.432.9-.819,1.355-1.23a39.972,39.972,0,0,1,4.579-3.659,42.778,42.778,0,0,1,6.907-3.771,38.332,38.332,0,0,1,4.762-1.666,39.865,39.865,0,0,1,11.006-1.547,39.092,39.092,0,0,1,15.759,3.213,42.734,42.734,0,0,1,6.911,3.771,39.873,39.873,0,0,1,10.827,10.825q1.083,1.6,2.025,3.332t1.745,3.575a38.607,38.607,0,0,1,3.009,11.642q.2,2.031.2,4.121A39.147,39.147,0,0,1,960.5,271.189Z" fill="currentColor"/>
    <path d="M777.289,169.212a40.167,40.167,0,0,0-14.207-8.757,50.284,50.284,0,0,0-17.223-2.918q-17.905,0-28.706,12.064t-10.8,35.032q0,22.963,10.8,35.029t28.706,12.067a50.285,50.285,0,0,0,17.223-2.919,40.158,40.158,0,0,0,14.207-8.759,41.577,41.577,0,0,0,9.733-14.691,54.826,54.826,0,0,0,3.6-20.727,54.84,54.84,0,0,0-3.6-20.727A41.626,41.626,0,0,0,777.289,169.212Z" fill="currentColor"/>
    <path d="M181.634,115.032c-.051-.075-.1-.149-.155-.224q-.594-.882-1.269-1.7c-.185-.222-.386-.43-.581-.644-.359-.4-.718-.8-1.109-1.18a22.9,22.9,0,0,0-2.01-1.72c-.312-.235-.673-.438-1-.661a27.133,27.133,0,0,0-3.421-1.963c-.594-.287-1.206-.563-1.842-.822a44.459,44.459,0,0,0-9.03-2.528c-.376-.067-.751-.135-1.136-.2a83.98,83.98,0,0,0-13.052-.933h-29v57.6h29q20.046,0,29.484-7.1t9.441-21.7a30.266,30.266,0,0,0-3.108-14.181A23.461,23.461,0,0,0,181.634,115.032Z" fill="currentColor"/>
  </g>
</svg>
